<svg width="440" height="164" viewBox="0 0 440 164" fill="none" xmlns="http://www.w3.org/2000/svg">
<g clip-path="url(#clip0_645_18)">
<rect width="440" height="164" fill="white"/>
<path d="M140.963 96.246C136.889 93.4831 124.463 89.926 107.352 97.8001C104.636 99.3542 98.185 105.156 94.111 115.931C93.6017 117.831 91.1573 121.63 85.4536 121.63C78.3239 121.63 71.1943 116.449 65.0832 132.508C64.2947 134.58 56.935 136.48 55.9165 130.436C48.9567 128.019 35.4443 128.26 37.0739 148.567C37.2437 151.503 36.6667 157.581 33 158.41L143 161L140.963 96.246Z" fill="url(#paint0_linear_645_18)"/>
<path d="M285 93.0752C298.821 81.1215 330.523 68.6896 346.769 114.592L351 130.623C355.513 124.858 366.315 117.038 373.423 131.889C380.531 146.74 383.436 157.484 384 161H285V93.0752Z" fill="url(#paint1_linear_645_18)"/>
<path d="M143 38.3223H280V325.322H143V38.3223Z" fill="#4D4D4D"/>
<path fill-rule="evenodd" clip-rule="evenodd" d="M265.392 332C277.453 331.997 287.272 322.148 287.272 310.045C287.272 252.456 287.269 193.733 287.309 136.134H289V97.9161H287.293C287.266 82.9183 287.272 66.9285 287.272 51.9678C287.272 39.8684 277.459 30.0025 265.413 30.0025C230.18 29.9992 194.948 29.9992 159.712 30.0025C147.908 30.0059 137.971 39.8987 137.954 51.654C137.95 57.0391 137.998 64.2832 137.923 69.6683H136V82.3548H137.95C137.961 84.9124 137.967 89.5281 137.954 92.4535H136V114.611H137.788C137.809 115.063 137.967 118.491 137.984 120.077H136V142.235H137.839C137.839 142.235 137.927 143.024 137.927 144.067C137.961 171.782 137.954 199.5 137.954 227.218C137.954 254.858 137.954 282.506 137.954 310.149C137.957 322.114 147.814 332.192 159.732 331.963L265.392 332ZM228.861 40.1619C230.342 40.1619 231.051 40.9177 231.149 42.2977C231.078 43.8194 230.292 44.5583 228.851 44.5381C227.369 44.5212 226.627 43.5596 226.671 42.2336C226.718 41.0223 227.454 40.1619 228.861 40.1619ZM205.385 41.0898C207.862 41.0999 210.345 41.0898 212.822 41.0898C215.161 41.0898 217.499 41.0965 219.834 41.0864C220.779 41.083 221.758 40.9818 221.731 42.3922C221.697 43.6372 220.84 43.6001 219.949 43.6001C215.063 43.59 210.177 43.59 205.287 43.6001C204.403 43.6001 203.532 43.6575 203.502 42.4057C203.465 40.9919 204.437 41.083 205.385 41.0898ZM278.344 309.458C278.344 315.993 274.271 321.26 267.94 322.853C266.52 323.207 264.998 323.261 263.516 323.261C229.634 323.285 195.748 323.214 161.862 323.329C153.301 323.359 148.215 318.041 147.088 312.113C146.825 310.747 146.886 309.303 146.886 307.889C146.876 223.253 146.876 138.621 146.876 53.9855C146.876 52.2209 146.835 50.4664 147.314 48.7287C148.755 43.4719 153.581 39.369 159.007 38.9C163.606 38.5052 168.216 38.7617 172.822 38.7482C175.046 38.7414 176.119 39.9392 176.247 42.1931C176.524 47.1496 178.626 49.1606 183.532 49.1606C202.955 49.1606 222.379 49.164 241.802 49.1606C246.577 49.1606 248.77 47.0518 248.989 42.3146C249.094 39.9966 250.12 38.7549 252.29 38.7549C256.967 38.7549 261.647 38.5019 266.314 38.9101C272.874 39.4803 278.333 45.3614 278.333 51.9442C278.35 95.0414 278.344 138.139 278.347 181.236C278.35 223.975 278.354 266.718 278.344 309.458Z" fill="black"/>
<path d="M150 71.9412C150 66.4508 154.494 62 160.038 62H261.962C267.506 62 272 66.4508 272 71.9412V91.0588C272 96.5492 267.506 101 261.962 101H160.038C154.494 101 150 96.5492 150 91.0588V71.9412Z" fill="#D8D8D8"/>
<path d="M159 69H220V78H159V69Z" fill="#B5B5B5"/>
<path d="M159 82H268V86H159V82Z" fill="#B5B5B5"/>
<path d="M159 89H239V93H159V89Z" fill="#B5B5B5"/>
<path d="M204.99 162.626C210.471 162.626 219.147 160.335 210.014 151.174C209.101 151.174 207.183 150.258 206.817 146.593C206.361 142.013 202.25 136.974 192.66 140.181C191.138 136.516 186.632 130.103 180.787 133.768C174.941 137.432 168.304 128.882 165.716 124.148C161.606 119.415 148.152 114.049 135 127.608V141.303H137.335V164H199.054L204.99 162.626Z" fill="url(#paint2_linear_645_18)"/>
</g>
<defs>
<linearGradient id="paint0_linear_645_18" x1="127.894" y1="93" x2="127.867" y2="188.356" gradientUnits="userSpaceOnUse">
<stop stop-color="#B1C7F0"/>
<stop offset="0.885" stop-color="white" stop-opacity="0"/>
</linearGradient>
<linearGradient id="paint1_linear_645_18" x1="229.154" y1="87.4846" x2="232.52" y2="208.147" gradientUnits="userSpaceOnUse">
<stop stop-color="#B1C7F0"/>
<stop offset="0.885" stop-color="white" stop-opacity="0"/>
</linearGradient>
<linearGradient id="paint2_linear_645_18" x1="213.667" y1="157.085" x2="73.1133" y2="144.939" gradientUnits="userSpaceOnUse">
<stop stop-color="#576789"/>
<stop offset="0.885" stop-color="#505767" stop-opacity="0"/>
</linearGradient>
<clipPath id="clip0_645_18">
<rect width="440" height="164" fill="white"/>
</clipPath>
</defs>
</svg>
